<svg version="1.1" id="Layer_1" xmlns="http://www.w3.org/2000/svg" xmlns:xlink="http://www.w3.org/1999/xlink" x="0px" y="0px"
	 width="100%" viewBox="0 0 512 512" enable-background="new 0 0 512 512" xml:space="preserve">
<path fill="#000000" opacity="1.000000" stroke="none" 
	d="
M283.000000,513.000000 
	C188.689560,513.000000 94.879120,513.000000 1.034338,513.000000 
	C1.034338,342.397858 1.034338,171.795731 1.034338,1.096792 
	C171.560455,1.096792 342.121002,1.096792 512.840759,1.096792 
	C512.840759,171.666550 512.840759,342.333252 512.840759,513.000000 
	C436.462372,513.000000 359.981171,513.000000 283.000000,513.000000 
M393.725403,177.891556 
	C398.699036,176.690887 399.549103,173.113297 398.869873,168.770905 
	C398.175232,164.329956 395.131470,162.916870 391.004639,162.159836 
	C390.317932,158.112900 389.631226,154.065948 389.601288,149.734329 
	C393.051849,148.340973 394.302673,145.553925 393.922302,142.126236 
	C393.502930,138.347153 392.291992,134.628510 392.135010,130.854065 
	C391.891693,125.001953 388.675049,122.829338 383.406860,121.943787 
	C375.235321,120.570206 367.129547,118.805656 358.995514,117.208855 
	C343.478180,114.162651 327.889252,110.232903 313.404205,121.570236 
	C312.765350,119.377335 312.291199,117.805969 311.849884,116.225433 
	C309.382904,107.390648 304.341827,100.271698 296.905670,95.049202 
	C285.898468,87.318680 274.641632,79.944489 263.569519,72.304893 
	C259.013336,69.161163 254.782837,69.262329 250.268539,72.399147 
	C240.314362,79.315956 230.318146,86.176888 220.214752,92.873055 
	C210.681610,99.191299 203.701752,107.183685 201.767319,118.857224 
	C201.655457,119.532356 200.859482,120.094124 200.120346,121.045151 
	C191.094269,114.665230 181.109894,112.655609 170.589615,114.412987 
	C157.020813,116.679611 143.560715,119.590004 130.014099,121.999931 
	C125.257988,122.846039 122.832977,125.246300 121.999275,130.007584 
	C120.226768,140.130447 118.192924,150.209412 116.143738,160.281464 
	C113.307594,174.221497 111.739868,187.971924 121.458679,200.468765 
	C120.254601,201.065231 119.438652,201.731293 118.539215,201.875061 
	C107.791138,203.593079 100.081627,209.828278 94.092339,218.455536 
	C86.800697,228.958725 79.766373,239.640594 72.470863,250.141037 
	C69.202522,254.845215 69.226318,259.168793 72.481163,263.877228 
	C80.129333,274.941101 87.384148,286.281586 95.198799,297.223999 
	C100.131615,304.131134 106.862480,309.027161 115.119698,311.529419 
	C117.096741,312.128510 119.130814,312.539368 121.689552,313.173279 
	C114.746323,322.265778 112.769966,332.133942 114.263985,342.455170 
	C115.900833,353.763153 118.317291,364.965118 120.601479,376.170959 
	C123.954559,392.620728 121.155769,389.997284 137.885056,393.428162 
	C149.089066,395.725891 160.303299,398.071198 171.609131,399.745972 
	C181.748947,401.248016 191.427811,399.158783 200.307632,392.852600 
	C201.037704,394.618622 201.684494,395.760040 201.988937,396.986450 
	C204.433914,406.835938 210.209961,414.287567 218.462158,419.936554 
	C229.012558,427.158752 239.654633,434.247986 250.157135,441.538696 
	C254.860931,444.804077 259.191406,444.780518 263.891296,441.507782 
	C274.522369,434.104950 285.338501,426.967987 295.977997,419.576965 
	C304.324585,413.778839 310.196533,406.196411 312.083984,395.928406 
	C312.248657,395.032623 312.883118,394.223145 313.374817,393.219574 
	C314.208893,393.528259 314.870209,393.651459 315.397247,393.986145 
	C324.731110,399.912506 334.783478,401.229523 345.542145,399.143951 
	C357.421021,396.841248 369.351135,394.796906 381.277252,392.746521 
	C387.589508,391.661316 392.255737,389.210815 392.279633,381.782745 
	C392.285889,379.838867 393.120880,377.906708 393.493500,375.953552 
	C395.637634,364.715088 398.139862,353.527161 399.771912,342.214081 
	C401.252777,331.949371 399.090607,322.166687 392.578217,313.386871 
	C394.589478,312.783539 395.996796,312.323151 397.424713,311.939270 
	C406.463074,309.509216 413.696198,304.390472 419.018250,296.791748 
	C426.639191,285.910797 433.926483,274.796600 441.509399,263.888428 
	C444.776703,259.188354 444.807953,254.858490 441.536896,250.154861 
	C434.048340,239.386642 426.814148,228.441391 419.318359,217.678284 
	C413.708008,209.622421 406.259064,204.123642 396.501495,201.879959 
	C395.369507,201.619675 393.713837,199.543076 393.861877,198.538589 
	C394.419067,194.757874 393.575409,191.660431 391.244354,188.238434 
	C391.830444,184.829086 392.416504,181.419754 393.725403,177.891556 
z"/>
<path fill="#4C3523" opacity="1.000000" stroke="none" 
	d="
M390.956848,188.967758 
	C393.575409,191.660431 394.419067,194.757874 393.861877,198.538589 
	C393.713837,199.543076 395.369507,201.619675 396.501495,201.879959 
	C406.259064,204.123642 413.708008,209.622421 419.318359,217.678284 
	C426.814148,228.441391 434.048340,239.386642 441.536896,250.154861 
	C444.807953,254.858490 444.776703,259.188354 441.509399,263.888428 
	C433.926483,274.796600 426.639191,285.910797 419.018250,296.791748 
	C413.696198,304.390472 406.463074,309.509216 397.424713,311.939270 
	C395.996796,312.323151 394.589478,312.783539 392.578217,313.386871 
	C399.090607,322.166687 401.252777,331.949371 399.771912,342.214081 
	C398.139862,353.527161 395.637634,364.715088 393.493500,375.953552 
	C393.120880,377.906708 392.285889,379.838867 392.279633,381.782745 
	C392.255737,389.210815 387.589508,391.661316 381.277252,392.746521 
	C369.351135,394.796906 357.421021,396.841248 345.542145,399.143951 
	C334.783478,401.229523 324.731110,399.912506 315.397247,393.986145 
	C314.870209,393.651459 314.208893,393.528259 313.374817,393.219574 
	C312.883118,394.223145 312.248657,395.032623 312.083984,395.928406 
	C310.196533,406.196411 304.324585,413.778839 295.977997,419.576965 
	C285.338501,426.967987 274.522369,434.104950 263.891296,441.507782 
	C259.191406,444.780518 254.860931,444.804077 250.157135,441.538696 
	C239.654633,434.247986 229.012558,427.158752 218.462158,419.936554 
	C210.209961,414.287567 204.433914,406.835938 201.988937,396.986450 
	C201.684494,395.760040 201.037704,394.618622 200.307632,392.852600 
	C191.427811,399.158783 181.748947,401.248016 171.609131,399.745972 
	C160.303299,398.071198 149.089066,395.725891 137.885056,393.428162 
	C121.155769,389.997284 123.954559,392.620728 120.601479,376.170959 
	C118.317291,364.965118 115.900833,353.763153 114.263985,342.455170 
	C112.769966,332.133942 114.746323,322.265778 121.689552,313.173279 
	C119.130814,312.539368 117.096741,312.128510 115.119698,311.529419 
	C106.862480,309.027161 100.131615,304.131134 95.198799,297.223999 
	C87.384148,286.281586 80.129333,274.941101 72.481163,263.877228 
	C69.226318,259.168793 69.202522,254.845215 72.470863,250.141037 
	C79.766373,239.640594 86.800697,228.958725 94.092339,218.455536 
	C100.081627,209.828278 107.791138,203.593079 118.539215,201.875061 
	C119.438652,201.731293 120.254601,201.065231 121.458679,200.468765 
	C111.739868,187.971924 113.307594,174.221497 116.143738,160.281464 
	C118.192924,150.209412 120.226768,140.130447 121.999275,130.007584 
	C122.832977,125.246300 125.257988,122.846039 130.014099,121.999931 
	C143.560715,119.590004 157.020813,116.679611 170.589615,114.412987 
	C181.109894,112.655609 191.094269,114.665230 200.120346,121.045151 
	C200.859482,120.094124 201.655457,119.532356 201.767319,118.857224 
	C203.701752,107.183685 210.681610,99.191299 220.214752,92.873055 
	C230.318146,86.176888 240.314362,79.315956 250.268539,72.399147 
	C254.782837,69.262329 259.013336,69.161163 263.569519,72.304893 
	C274.641632,79.944489 285.898468,87.318680 296.905670,95.049202 
	C304.341827,100.271698 309.382904,107.390648 311.849884,116.225433 
	C312.291199,117.805969 312.765350,119.377335 313.404205,121.570236 
	C327.889252,110.232903 343.478180,114.162651 358.995514,117.208855 
	C367.129547,118.805656 375.235321,120.570206 383.406860,121.943787 
	C388.675049,122.829338 391.891693,125.001953 392.135010,130.854065 
	C392.291992,134.628510 393.502930,138.347153 393.922302,142.126236 
	C394.302673,145.553925 393.051849,148.340973 388.888672,149.833435 
	C381.559296,148.934158 380.368500,147.893936 379.185760,140.171143 
	C378.673218,136.824478 377.464172,135.397446 374.006989,134.838882 
	C364.328186,133.275040 354.646393,131.574799 345.111877,129.312653 
	C333.957489,126.666168 324.997589,129.429825 317.146759,137.804123 
	C313.911621,141.254974 312.501221,144.499634 312.578369,149.171921 
	C312.833984,164.650452 312.666718,180.135849 312.686798,195.618561 
	C312.689087,197.381943 312.850372,199.145126 312.958618,201.324982 
	C315.267822,201.324982 317.069000,201.324966 318.870209,201.324966 
	C333.021118,201.325043 347.189117,200.910324 361.315948,201.493881 
	C368.784729,201.802383 374.638000,200.117950 378.901794,193.924561 
	C381.866547,189.618073 385.890839,188.071899 390.956848,188.967758 
M227.127533,356.761597 
	C229.802063,360.879578 228.521225,364.207733 225.290009,367.405273 
	C221.880905,370.778900 217.376984,373.862549 215.712967,378.018463 
	C211.888977,387.568909 217.149323,401.227234 225.876678,407.296906 
	C235.168427,413.759094 244.650940,419.949310 253.876877,426.502258 
	C256.460815,428.337585 258.155548,427.867584 260.463226,426.244019 
	C267.950134,420.976624 275.317383,415.462738 283.209503,410.865753 
	C294.703308,404.170746 300.081848,394.650391 298.553558,381.489838 
	C298.258911,378.952576 297.162659,376.003845 295.431610,374.219421 
	C283.834167,362.264191 271.969543,350.567932 260.175415,338.803894 
	C259.156677,337.787750 258.020935,336.888885 256.857025,335.862793 
	C252.445587,339.864594 248.932877,345.792572 241.633057,340.329742 
	C236.669785,333.205750 243.837997,330.090149 246.378754,326.122467 
	C239.411285,313.760162 229.087616,310.050934 215.772522,313.434143 
	C215.772522,327.487183 215.772522,341.655762 215.772522,354.234253 
	C219.936951,354.931000 223.409729,355.511993 227.127533,356.761597 
M207.325714,230.929230 
	C198.952515,228.668106 202.353195,221.203796 200.860016,215.764786 
	C186.534286,215.764786 172.358521,215.764786 158.024231,215.764786 
	C168.449844,226.086945 178.572952,236.109573 188.949249,246.382889 
	C191.922852,242.483017 195.999344,241.330887 201.100418,244.842941 
	C204.859863,249.745331 201.606735,253.475128 198.090134,257.888947 
	C211.834808,266.454498 218.312531,278.357300 215.362122,294.465179 
	C214.758789,297.759003 216.547409,298.833130 219.708023,298.714813 
	C224.362381,298.540497 229.037735,298.859314 233.686417,298.621429 
	C238.005707,298.400391 241.340515,299.749298 244.284378,302.970795 
	C248.273605,307.336304 252.615967,311.379120 256.794067,315.547577 
	C257.918823,314.648071 258.555389,314.325653 258.929840,313.812134 
	C267.771881,301.685120 279.233368,295.800934 294.485840,298.636078 
	C297.800079,299.252136 298.824524,297.409332 298.714600,294.271790 
	C298.545654,289.450378 298.827606,284.612274 298.629333,279.793091 
	C298.466705,275.840149 299.724548,272.787018 302.646667,270.073608 
	C307.102997,265.935577 311.282104,261.498962 315.561554,257.206543 
	C314.645599,256.071228 314.319702,255.435959 313.804199,255.062210 
	C301.633789,246.238907 295.818939,234.749161 298.636444,219.508163 
	C299.250519,216.186417 297.396423,215.176636 294.265717,215.285614 
	C289.444214,215.453430 284.605652,215.166550 279.787140,215.372589 
	C275.829468,215.541840 272.781586,214.280594 270.068146,211.360397 
	C265.928986,206.905777 261.493164,202.726761 256.437958,197.687744 
	C254.813019,199.774170 253.625183,201.178833 252.568207,202.675903 
	C245.033539,213.347855 234.892670,217.205902 221.959946,215.476959 
	C215.549225,214.619919 215.453049,215.339218 215.321808,221.756836 
	C215.190643,228.169739 214.070267,229.611069 207.325714,230.929230 
M287.431702,147.931793 
	C290.376160,144.984467 293.353973,142.069290 296.245270,139.070709 
	C297.142883,138.139786 298.184326,137.089417 298.516541,135.912155 
	C301.255920,126.205452 297.127045,113.148109 289.193115,107.488258 
	C279.433929,100.526314 269.467194,93.849678 259.451935,87.259872 
	C258.309998,86.508507 255.846619,86.449829 254.727783,87.184486 
	C244.568283,93.855408 234.473694,100.636360 224.563309,107.671349 
	C218.471817,111.995445 215.924561,118.368568 215.314590,125.727669 
	C214.740662,132.651978 215.876465,138.313797 221.684067,143.351532 
	C230.348618,150.867493 238.093491,159.445114 246.210831,167.589783 
	C249.712143,171.102905 253.166443,174.662918 256.869171,178.432800 
	C267.163666,168.160080 277.048157,158.296463 287.431702,147.931793 
M349.058105,243.558060 
	C344.566528,247.934311 340.074951,252.310562 335.417847,256.848114 
	C349.247314,270.656219 362.442413,283.843872 375.669098,296.999817 
	C376.343658,297.670776 377.224060,298.321686 378.119781,298.554993 
	C389.082916,301.409943 401.289368,296.906982 407.724548,287.573639 
	C413.963715,278.524658 420.005463,269.338501 426.318695,260.342285 
	C428.001221,257.944733 428.205688,256.264160 426.410492,253.759766 
	C420.978546,246.181854 415.396881,238.648468 410.725616,230.603012 
	C404.003418,219.025238 394.350128,213.933380 381.239380,215.441025 
	C378.851929,215.715576 376.103333,216.784348 374.399872,218.408020 
	C365.957550,226.455002 357.809723,234.811005 349.058105,243.558060 
M147.941757,287.441803 
	C158.027512,277.345825 168.113266,267.249847 178.319077,257.033691 
	C164.737122,243.433792 151.565414,230.232468 138.363922,217.060989 
	C137.686127,216.384750 136.822922,215.712814 135.927780,215.463623 
	C125.529831,212.569000 112.785774,217.104050 106.604774,226.002502 
	C100.144753,235.302612 93.729538,244.638657 87.572052,254.138718 
	C86.693878,255.493591 86.606689,258.360779 87.461784,259.679901 
	C93.800995,269.459015 100.421890,279.057648 107.055130,288.643250 
	C111.424362,294.957153 117.686203,297.896210 125.230179,298.655426 
	C132.529282,299.390015 139.100128,298.673889 143.596405,291.858490 
	C144.585236,290.359650 146.144730,289.237305 147.941757,287.441803 
M370.260925,379.870544 
	C378.456726,378.037537 378.416901,378.030212 379.941376,369.731476 
	C381.473053,361.393280 382.826813,353.009338 384.744507,344.758392 
	C387.236694,334.035767 384.667511,325.275299 376.651337,317.597137 
	C373.015076,314.114197 369.579620,312.441345 364.473419,312.553436 
	C349.167847,312.889465 333.850189,312.666565 318.537231,312.685333 
	C316.761078,312.687500 314.985077,312.837280 313.270050,312.915833 
	C313.011932,313.794403 312.758575,314.255920 312.757599,314.717957 
	C312.719269,332.859955 312.693939,351.002014 312.713409,369.144012 
	C312.714417,370.094757 312.904480,371.170776 313.371918,371.976440 
	C318.994904,381.667511 330.703979,387.068878 341.963013,385.088837 
	C351.130127,383.476624 360.267181,381.693329 370.260925,379.870544 
M159.759125,131.131775 
	C152.901657,132.436279 145.998199,133.550171 139.220535,135.185425 
	C137.617050,135.572296 135.544296,137.516815 135.205215,139.075104 
	C132.943710,149.467743 131.306335,159.996094 129.050201,170.390045 
	C126.824242,180.645035 129.723831,188.827026 137.114395,196.157410 
	C140.969070,199.980713 144.771179,201.575806 150.191803,201.448975 
	C165.330399,201.094788 180.482712,201.334137 195.629562,201.313705 
	C197.391815,201.311325 199.153839,201.148972 200.818665,201.065659 
	C201.050018,200.062531 201.253906,199.589157 201.254776,199.115402 
	C201.287827,181.139297 201.355606,163.162766 201.227249,145.187668 
	C201.215820,143.589325 200.209396,141.764496 199.161850,140.444107 
	C190.787933,129.889343 180.302536,125.574722 166.973648,129.813766 
	C164.931076,130.463379 162.731979,130.620804 159.759125,131.131775 
M132.491791,323.143250 
	C128.647842,328.984985 127.417984,335.224976 128.864395,342.174896 
	C131.100555,352.919556 133.097473,363.718567 134.933884,374.538971 
	C135.452698,377.595886 136.861313,378.599060 139.741043,379.095764 
	C149.571396,380.791443 159.420532,382.480103 169.132996,384.730408 
	C180.091370,387.269379 188.937210,384.562775 196.690506,376.367950 
	C200.053497,372.813385 201.510895,369.410492 201.425430,364.563995 
	C201.155350,349.248779 201.333481,333.925842 201.314865,318.605865 
	C201.312698,316.823242 201.164322,315.040833 201.057327,312.674469 
	C198.927353,312.674469 197.139893,312.674469 195.352432,312.674469 
	C181.697678,312.674377 167.985825,313.435791 154.407425,312.417511 
	C144.692215,311.688934 138.265594,315.310425 132.491791,323.143250 
M345.440308,215.324310 
	C334.692963,215.324310 323.945587,215.324310 313.590393,215.324310 
	C309.940399,229.201874 313.937805,239.411911 325.045258,245.777191 
	C334.972473,235.761993 345.043060,225.602203 355.230530,215.324463 
	C352.607758,215.324463 349.509613,215.324463 345.440308,215.324310 
M201.128815,280.305664 
	C196.972443,275.895691 192.816071,271.485718 189.163788,267.610596 
	C178.690445,278.160950 168.679169,288.245819 158.718475,298.279785 
	C172.392181,298.279785 186.559418,298.279785 201.277496,298.279785 
	C201.277496,292.388489 201.277496,286.772705 201.128815,280.305664 
M343.168335,284.331879 
	C337.440582,278.560577 331.712860,272.789276 326.425720,267.461884 
	C313.868683,274.575134 309.998718,284.841064 313.458313,298.269958 
	C327.434296,298.269958 341.614594,298.269958 355.794922,298.269958 
	C356.018341,297.919891 356.241760,297.569824 356.465179,297.219757 
	C352.199524,293.090485 347.933899,288.961212 343.168335,284.331879 
M274.839935,333.650726 
	C282.377075,341.186615 289.914215,348.722473 297.451385,356.258362 
	C297.859528,356.029694 298.267700,355.801025 298.675873,355.572388 
	C298.675873,345.965759 298.737701,336.358582 298.648438,326.752777 
	C298.607056,322.298431 299.952850,315.919525 297.632233,313.895233 
	C294.900665,311.512482 288.875885,312.754364 284.277832,312.735260 
	C282.406372,312.727478 280.062073,312.976562 278.745209,314.079041 
	C274.598053,317.550995 270.835968,321.482941 266.015045,326.110077 
	C269.261017,328.855164 271.799103,331.001648 274.839935,333.650726 
M286.345032,168.844788 
	C279.848816,175.213074 273.352631,181.581375 267.351501,187.464325 
	C274.737976,200.114151 284.889099,204.203186 298.196594,200.469467 
	C298.196594,186.476212 298.196594,172.339920 298.196594,158.203629 
	C297.749573,157.913559 297.302582,157.623489 296.855560,157.333420 
	C293.518829,161.003937 290.182068,164.674469 286.345032,168.844788 
M219.104706,160.263947 
	C218.146561,159.511993 217.188416,158.760040 215.324249,157.297058 
	C215.324249,169.122635 215.324234,179.886566 215.324249,190.650482 
	C215.324265,201.339539 215.325500,201.428848 226.133957,201.281982 
	C229.186630,201.240524 232.865265,201.443985 235.142380,199.895905 
	C239.590668,196.871796 243.253418,192.692230 247.614853,188.644424 
	C237.763565,178.841507 228.690765,169.813248 219.104706,160.263947 
z"/>
<path fill="#FCCA46" opacity="1.000000" stroke="none" 
	d="
M391.100586,188.603088 
	C385.890839,188.071899 381.866547,189.618073 378.901794,193.924561 
	C374.638000,200.117950 368.784729,201.802383 361.315948,201.493881 
	C347.189117,200.910324 333.021118,201.325043 318.870209,201.324966 
	C317.069000,201.324966 315.267822,201.324982 312.958618,201.324982 
	C312.850372,199.145126 312.689087,197.381943 312.686798,195.618561 
	C312.666718,180.135849 312.833984,164.650452 312.578369,149.171921 
	C312.501221,144.499634 313.911621,141.254974 317.146759,137.804123 
	C324.997589,129.429825 333.957489,126.666168 345.111877,129.312653 
	C354.646393,131.574799 364.328186,133.275040 374.006989,134.838882 
	C377.464172,135.397446 378.673218,136.824478 379.185760,140.171143 
	C380.368500,147.893936 381.559296,148.934158 388.560272,149.975769 
	C389.631226,154.065948 390.317932,158.112900 390.717712,162.745590 
	C386.923157,164.812790 384.611389,167.254700 385.099457,171.257614 
	C385.648071,175.756805 388.880646,177.495468 393.002594,178.010406 
	C392.416504,181.419754 391.830444,184.829086 391.100586,188.603088 
z"/>
<path fill="#4D3623" opacity="1.000000" stroke="none" 
	d="
M393.364014,177.950989 
	C388.880646,177.495468 385.648071,175.756805 385.099457,171.257614 
	C384.611389,167.254700 386.923157,164.812790 390.736847,163.163147 
	C395.131470,162.916870 398.175232,164.329956 398.869873,168.770905 
	C399.549103,173.113297 398.699036,176.690887 393.364014,177.950989 
z"/>
<path fill="#F16D53" opacity="1.000000" stroke="none" 
	d="
M208.031982,231.134888 
	C214.070267,229.611069 215.190643,228.169739 215.321808,221.756836 
	C215.453049,215.339218 215.549225,214.619919 221.959946,215.476959 
	C234.892670,217.205902 245.033539,213.347855 252.568207,202.675903 
	C253.625183,201.178833 254.813019,199.774170 256.437958,197.687744 
	C261.493164,202.726761 265.928986,206.905777 270.068146,211.360397 
	C272.781586,214.280594 275.829468,215.541840 279.787140,215.372589 
	C284.605652,215.166550 289.444214,215.453430 294.265717,215.285614 
	C297.396423,215.176636 299.250519,216.186417 298.636444,219.508163 
	C295.818939,234.749161 301.633789,246.238907 313.804199,255.062210 
	C314.319702,255.435959 314.645599,256.071228 315.561554,257.206543 
	C311.282104,261.498962 307.102997,265.935577 302.646667,270.073608 
	C299.724548,272.787018 298.466705,275.840149 298.629333,279.793091 
	C298.827606,284.612274 298.545654,289.450378 298.714600,294.271790 
	C298.824524,297.409332 297.800079,299.252136 294.485840,298.636078 
	C279.233368,295.800934 267.771881,301.685120 258.929840,313.812134 
	C258.555389,314.325653 257.918823,314.648071 256.794067,315.547577 
	C252.615967,311.379120 248.273605,307.336304 244.284378,302.970795 
	C241.340515,299.749298 238.005707,298.400391 233.686417,298.621429 
	C229.037735,298.859314 224.362381,298.540497 219.708023,298.714813 
	C216.547409,298.833130 214.758789,297.759003 215.362122,294.465179 
	C218.312531,278.357300 211.834808,266.454498 198.090134,257.888947 
	C201.606735,253.475128 204.859863,249.745331 201.241379,244.311493 
	C205.477127,240.552689 209.145462,237.101074 208.031982,231.134888 
z"/>
<path fill="#FEE675" opacity="1.000000" stroke="none" 
	d="
M241.947113,340.991547 
	C248.932877,345.792572 252.445587,339.864594 256.857025,335.862793 
	C258.020935,336.888885 259.156677,337.787750 260.175415,338.803894 
	C271.969543,350.567932 283.834167,362.264191 295.431610,374.219421 
	C297.162659,376.003845 298.258911,378.952576 298.553558,381.489838 
	C300.081848,394.650391 294.703308,404.170746 283.209503,410.865753 
	C275.317383,415.462738 267.950134,420.976624 260.463226,426.244019 
	C258.155548,427.867584 256.460815,428.337585 253.876877,426.502258 
	C244.650940,419.949310 235.168427,413.759094 225.876678,407.296906 
	C217.149323,401.227234 211.888977,387.568909 215.712967,378.018463 
	C217.376984,373.862549 221.880905,370.778900 225.290009,367.405273 
	C228.521225,364.207733 229.802063,360.879578 227.210175,356.155518 
	C232.177597,350.696808 237.062363,345.844177 241.947113,340.991547 
z"/>
<path fill="#FDE675" opacity="1.000000" stroke="none" 
	d="
M287.182190,148.182327 
	C277.048157,158.296463 267.163666,168.160080 256.869171,178.432800 
	C253.166443,174.662918 249.712143,171.102905 246.210831,167.589783 
	C238.093491,159.445114 230.348618,150.867493 221.684067,143.351532 
	C215.876465,138.313797 214.740662,132.651978 215.314590,125.727669 
	C215.924561,118.368568 218.471817,111.995445 224.563309,107.671349 
	C234.473694,100.636360 244.568283,93.855408 254.727783,87.184486 
	C255.846619,86.449829 258.309998,86.508507 259.451935,87.259872 
	C269.467194,93.849678 279.433929,100.526314 289.193115,107.488258 
	C297.127045,113.148109 301.255920,126.205452 298.516541,135.912155 
	C298.184326,137.089417 297.142883,138.139786 296.245270,139.070709 
	C293.353973,142.069290 290.376160,144.984467 287.182190,148.182327 
z"/>
<path fill="#FDE675" opacity="1.000000" stroke="none" 
	d="
M349.308105,243.308075 
	C357.809723,234.811005 365.957550,226.455002 374.399872,218.408020 
	C376.103333,216.784348 378.851929,215.715576 381.239380,215.441025 
	C394.350128,213.933380 404.003418,219.025238 410.725616,230.603012 
	C415.396881,238.648468 420.978546,246.181854 426.410492,253.759766 
	C428.205688,256.264160 428.001221,257.944733 426.318695,260.342285 
	C420.005463,269.338501 413.963715,278.524658 407.724548,287.573639 
	C401.289368,296.906982 389.082916,301.409943 378.119781,298.554993 
	C377.224060,298.321686 376.343658,297.670776 375.669098,296.999817 
	C362.442413,283.843872 349.247314,270.656219 335.417847,256.848114 
	C340.074951,252.310562 344.566528,247.934311 349.308105,243.308075 
z"/>
<path fill="#FDE675" opacity="1.000000" stroke="none" 
	d="
M147.691589,287.691681 
	C146.144730,289.237305 144.585236,290.359650 143.596405,291.858490 
	C139.100128,298.673889 132.529282,299.390015 125.230179,298.655426 
	C117.686203,297.896210 111.424362,294.957153 107.055130,288.643250 
	C100.421890,279.057648 93.800995,269.459015 87.461784,259.679901 
	C86.606689,258.360779 86.693878,255.493591 87.572052,254.138718 
	C93.729538,244.638657 100.144753,235.302612 106.604774,226.002502 
	C112.785774,217.104050 125.529831,212.569000 135.927780,215.463623 
	C136.822922,215.712814 137.686127,216.384750 138.363922,217.060989 
	C151.565414,230.232468 164.737122,243.433792 178.319077,257.033691 
	C168.113266,267.249847 158.027512,277.345825 147.691589,287.691681 
z"/>
<path fill="#FBCA46" opacity="1.000000" stroke="none" 
	d="
M369.839233,379.928223 
	C360.267181,381.693329 351.130127,383.476624 341.963013,385.088837 
	C330.703979,387.068878 318.994904,381.667511 313.371918,371.976440 
	C312.904480,371.170776 312.714417,370.094757 312.713409,369.144012 
	C312.693939,351.002014 312.719269,332.859955 312.757599,314.717957 
	C312.758575,314.255920 313.011932,313.794403 313.270050,312.915833 
	C314.985077,312.837280 316.761078,312.687500 318.537231,312.685333 
	C333.850189,312.666565 349.167847,312.889465 364.473419,312.553436 
	C369.579620,312.441345 373.015076,314.114197 376.651337,317.597137 
	C384.667511,325.275299 387.236694,334.035767 384.744507,344.758392 
	C382.826813,353.009338 381.473053,361.393280 379.941376,369.731476 
	C378.416901,378.030212 378.456726,378.037537 369.839233,379.928223 
z"/>
<path fill="#FBC946" opacity="1.000000" stroke="none" 
	d="
M160.182190,131.068817 
	C162.731979,130.620804 164.931076,130.463379 166.973648,129.813766 
	C180.302536,125.574722 190.787933,129.889343 199.161850,140.444107 
	C200.209396,141.764496 201.215820,143.589325 201.227249,145.187668 
	C201.355606,163.162766 201.287827,181.139297 201.254776,199.115402 
	C201.253906,199.589157 201.050018,200.062531 200.818665,201.065659 
	C199.153839,201.148972 197.391815,201.311325 195.629562,201.313705 
	C180.482712,201.334137 165.330399,201.094788 150.191803,201.448975 
	C144.771179,201.575806 140.969070,199.980713 137.114395,196.157410 
	C129.723831,188.827026 126.824242,180.645035 129.050201,170.390045 
	C131.306335,159.996094 132.943710,149.467743 135.205215,139.075104 
	C135.544296,137.516815 137.617050,135.572296 139.220535,135.185425 
	C145.998199,133.550171 152.901657,132.436279 160.182190,131.068817 
z"/>
<path fill="#FBC946" opacity="1.000000" stroke="none" 
	d="
M132.720367,322.858093 
	C138.265594,315.310425 144.692215,311.688934 154.407425,312.417511 
	C167.985825,313.435791 181.697678,312.674377 195.352432,312.674469 
	C197.139893,312.674469 198.927353,312.674469 201.057327,312.674469 
	C201.164322,315.040833 201.312698,316.823242 201.314865,318.605865 
	C201.333481,333.925842 201.155350,349.248779 201.425430,364.563995 
	C201.510895,369.410492 200.053497,372.813385 196.690506,376.367950 
	C188.937210,384.562775 180.091370,387.269379 169.132996,384.730408 
	C159.420532,382.480103 149.571396,380.791443 139.741043,379.095764 
	C136.861313,378.599060 135.452698,377.595886 134.933884,374.538971 
	C133.097473,363.718567 131.100555,352.919556 128.864395,342.174896 
	C127.417984,335.224976 128.647842,328.984985 132.720367,322.858093 
z"/>
<path fill="#F39D62" opacity="1.000000" stroke="none" 
	d="
M241.790100,340.660645 
	C237.062363,345.844177 232.177597,350.696808 227.087677,355.821228 
	C223.409729,355.511993 219.936951,354.931000 215.772522,354.234253 
	C215.772522,341.655762 215.772522,327.487183 215.772522,313.434143 
	C229.087616,310.050934 239.411285,313.760162 246.378754,326.122467 
	C243.837997,330.090149 236.669785,333.205750 241.790100,340.660645 
z"/>
<path fill="#F39C61" opacity="1.000000" stroke="none" 
	d="
M207.678848,231.032059 
	C209.145462,237.101074 205.477127,240.552689 201.095856,243.984192 
	C195.999344,241.330887 191.922852,242.483017 188.949249,246.382889 
	C178.572952,236.109573 168.449844,226.086945 158.024231,215.764786 
	C172.358521,215.764786 186.534286,215.764786 200.860016,215.764786 
	C202.353195,221.203796 198.952515,228.668106 207.678848,231.032059 
z"/>
<path fill="#F39C61" opacity="1.000000" stroke="none" 
	d="
M345.925903,215.324387 
	C349.509613,215.324463 352.607758,215.324463 355.230530,215.324463 
	C345.043060,225.602203 334.972473,235.761993 325.045258,245.777191 
	C313.937805,239.411911 309.940399,229.201874 313.590393,215.324310 
	C323.945587,215.324310 334.692963,215.324310 345.925903,215.324387 
z"/>
<path fill="#F39C61" opacity="1.000000" stroke="none" 
	d="
M201.203156,280.731323 
	C201.277496,286.772705 201.277496,292.388489 201.277496,298.279785 
	C186.559418,298.279785 172.392181,298.279785 158.718475,298.279785 
	C168.679169,288.245819 178.690445,278.160950 189.163788,267.610596 
	C192.816071,271.485718 196.972443,275.895691 201.203156,280.731323 
z"/>
<path fill="#F39C61" opacity="1.000000" stroke="none" 
	d="
M343.418274,284.581909 
	C347.933899,288.961212 352.199524,293.090485 356.465179,297.219757 
	C356.241760,297.569824 356.018341,297.919891 355.794922,298.269958 
	C341.614594,298.269958 327.434296,298.269958 313.458313,298.269958 
	C309.998718,284.841064 313.868683,274.575134 326.425720,267.461884 
	C331.712860,272.789276 337.440582,278.560577 343.418274,284.581909 
z"/>
<path fill="#F39C61" opacity="1.000000" stroke="none" 
	d="
M274.588562,333.399414 
	C271.799103,331.001648 269.261017,328.855164 266.015045,326.110077 
	C270.835968,321.482941 274.598053,317.550995 278.745209,314.079041 
	C280.062073,312.976562 282.406372,312.727478 284.277832,312.735260 
	C288.875885,312.754364 294.900665,311.512482 297.632233,313.895233 
	C299.952850,315.919525 298.607056,322.298431 298.648438,326.752777 
	C298.737701,336.358582 298.675873,345.965759 298.675873,355.572388 
	C298.267700,355.801025 297.859528,356.029694 297.451385,356.258362 
	C289.914215,348.722473 282.377075,341.186615 274.588562,333.399414 
z"/>
<path fill="#F39C61" opacity="1.000000" stroke="none" 
	d="
M286.595184,168.594879 
	C290.182068,164.674469 293.518829,161.003937 296.855560,157.333420 
	C297.302582,157.623489 297.749573,157.913559 298.196594,158.203629 
	C298.196594,172.339920 298.196594,186.476212 298.196594,200.469467 
	C284.889099,204.203186 274.737976,200.114151 267.351501,187.464325 
	C273.352631,181.581375 279.848816,175.213074 286.595184,168.594879 
z"/>
<path fill="#F39C61" opacity="1.000000" stroke="none" 
	d="
M219.361343,160.524475 
	C228.690765,169.813248 237.763565,178.841507 247.614853,188.644424 
	C243.253418,192.692230 239.590668,196.871796 235.142380,199.895905 
	C232.865265,201.443985 229.186630,201.240524 226.133957,201.281982 
	C215.325500,201.428848 215.324265,201.339539 215.324249,190.650482 
	C215.324234,179.886566 215.324249,169.122635 215.324249,157.297058 
	C217.188416,158.760040 218.146561,159.511993 219.361343,160.524475 
z"/>
</svg>